<?xml version="1.0" encoding="UTF-8"?>
<svg id="Lager_1" data-name="Lager 1" xmlns="http://www.w3.org/2000/svg" viewBox="0 0 232.12 280.51">
  <path d="M27.38,230.51c-.52.83-1.9.5-2.74.51-4.5.06-9.02.05-13.51,0-.85,0-2.22.32-2.74-.51,6.32.07,12.68-.02,19,0Z" fill="#b8b3ba"/>
  <g>
    <g>
      <g>
        <path d="M171.38,162.51c15.1,6.88,31.26,8.04,47.08,2.83,4.39-1.44,8.49-3.98,12.92-5.33v70c-.02,1.07-.81,1.61-1.49,2.26-17.71,16.81-37.87,31.4-56.01,47.74-1.51.28-.96-.76-1-1.73-.57-14.48.16-29.47,0-44.03,0-.85.32-2.22-.51-2.74-.04-.16.05-.35,0-.5l-.5-.5c-.15-.05-.34.04-.5,0-.52-.83-1.9-.5-2.74-.51-42.02-.52-84.24-.39-126.26,0-.27-1.21.62-1.03,1.32-1.41,23.68-12.64,37.43-32.16,44.18-58.09l81.29.04c1,.15.63-.96.71-1.04.06-.06.86.23,1.01-.33.28-1.05-.12-3.09,0-4.43.07-.79.46-1.61.49-2.24Z" fill="#505987"/>
        <path d="M42.38,230.01c42.01-.4,84.24-.53,126.26,0,.85.01,2.22-.32,2.74.51-44.16-.04-88.34.06-132.5,0,.68-.87,2.4-.49,3.5-.5Z" fill="#b8b3ba"/>
        <path d="M172.38,231.51c.83.52.5,1.9.51,2.74.15,14.56-.58,29.55,0,44.03.04.96-.51,2.01,1,1.73l-1.5.5v-49Z" fill="#b8b3ba"/>
        <path d="M172.38,231.01s-.47-.49-.5-.5l.5.5Z" fill="#b8b3ba"/>
      </g>
      <g>
        <path d="M60.88,64.01c.16.07.31.38.5.5,0,.86.52,2,.52,3.23.22,34.09-.21,68.19-.03,102.28,8.66-.09,17.35.11,26,0v.5c-6.75,25.93-20.51,45.45-44.18,58.09-.7.37-1.58.2-1.32,1.41-1.1.01-2.82-.37-3.5.5-3.86,0-7.79,0-11.5,0-6.32-.02-12.68.07-19,0-1.83-.02-5.55.35-7,0-.57-.83-.49-1.77-.52-2.73-1.94-55.55.02-113.46.02-169.27v-8c.32,0,.43-.47.5-.5,14.61-5.75,34.85-1.54,48.06,6.19,3.79,2.22,7.72,6.06,11.44,7.81Z" fill="#324f31"/>
        <path d="M1.38,230.51c-.28-.07-.62-.22-.75-.47,0-56.19-.84-112.56-.25-168.78,0-.85-.32-2.22.51-2.74,0,55.81-1.96,113.72-.02,169.27.03.95-.05,1.89.52,2.73Z" fill="#b8b3ba"/>
      </g>
    </g>
    <g>
      <g>
        <path d="M90.38.01C112.87,0,135.39,0,157.88.01c.17,0,.33,0,.5,0,15.99.01,32.01-.03,48,0,8.32.02,16.68-.01,25,0,.01,5.99-.01,12.01,0,18,.04,15.36,0,31.01,0,46.5l-5.49,10.26c-4.53,7.5-10.47,14.26-18.66,17.84-11.5,5.03-24.72,1.95-35.84-2.59,0-.35-.51-1.27-.52-2.21-.14-9.09.14-18.2.02-27.29-10.08-.12-20.19.16-30.27.02-24.99-.33-54.1-2.36-78.73-.02-1.93.18-.7,1.59-1,3.5-3.72-1.75-7.65-5.59-11.44-7.81-13.21-7.72-33.45-11.94-48.06-6.19V.01C31.04,0,60.72.02,90.38.01Z" fill="#765151"/>
        <path d="M157.88.01C135.39,0,112.87,0,90.38.01h67.5Z" fill="#b8b3ba"/>
        <path d="M1.38,50.01c-.07.03-.18.51-.5.5,0-15.91-.18-31.85,0-47.76C.88,1.91.55.53,1.38.01v50Z" fill="#b8b3ba"/>
        <path d="M206.38.01c-15.99-.03-32.01.01-48,0h48Z" fill="#b8b3ba"/>
        <path d="M231.38,18.01c-.01-5.99.01-12.01,0-18,.69.05.46.73.52,1.22.48,3.85.03,9.92-.01,14.03,0,.85.32,2.22-.51,2.74Z" fill="#b8b3ba"/>
      </g>
      <g>
        <path d="M231.38,230.01v-70c-4.44,1.34-8.53,3.88-12.92,5.33-15.82,5.21-31.98,4.05-47.08-2.83,1.23-23.05.31-49.21,0-72.5,11.13,4.54,24.34,7.62,35.84,2.59,8.19-3.58,14.13-10.34,18.66-17.84l5.49-10.26c-.01,54.27,1.08,108.51.51,162.76,0,.85.32,2.22-.51,2.74Z" fill="#b8b3ba"/>
        <path d="M61.88,60.51c.54,1.23-.5,3.44-.5,4-.19-.12-.34-.43-.5-.5.3-1.91-.93-3.32,1-3.5Z" fill="#b8b3ba"/>
        <path d="M169.88,169.51c-.08.08.28,1.19-.71,1.04l-81.29-.04v-.5c.09,0,.78-.53,1.69-.54,26.76-.29,53.55.29,80.31.04Z" fill="#b8b3ba"/>
      </g>
    </g>
  </g>
</svg>