<?xml version="1.0" encoding="UTF-8"?>
<svg id="Lager_1" data-name="Lager 1" xmlns="http://www.w3.org/2000/svg" viewBox="0 0 241.53 393.89">
  <path d="M80.54,378.94c1.76,2.47,8.14-1.43,5.81-4.81-2.34-3.39-8.52,1-5.81,4.81Z" fill="none"/>
  <path d="M145.46,373.53l5.99.49c-.98-2.75-4.34-2.7-5.99-.49Z" fill="none"/>
  <path d="M114.88,373.96c-3.02,4.33,4.04,6.64,6.42,4.93,4.06-2.93-3.72-8.8-6.42-4.93Z" fill="none"/>
  <path d="M65.45,171.02h110.01c.05-2.32-.07-4.67,0-7,.69-24.18.06-48.78,0-73-.02-9.99.01-20.02,0-30.01h-110.01c-.02,1.66.03,3.34,0,5.01-.48,34.97.36,70.03,0,105Z" fill="none"/>
  <rect x="17.44" y="378.02" width="7" height="1.45" fill="none"/>
  <path d="M19.45,374.02l7.99-.98c-2.73-.1-6.5-2.68-7.99.98Z" fill="none"/>
  <path d="M172.45,372.82c-1.77,0-3.21,1.43-3.21,3.21s1.43,3.21,3.21,3.21,3.21-1.43,3.21-3.21-1.43-3.21-3.21-3.21Z" fill="none"/>
  <path d="M193.46,373.53l5.99.49c-.98-2.75-4.34-2.7-5.99-.49Z" fill="none"/>
  <path d="M65.45,66.02c.02-1.67-.03-3.34,0-5.01h110.01c0,9.99-.03,20.02,0,30.01,15.48,6.13,31.16,8.59,44.92-2.58,5.64-4.58,13.7-16.57,16.08-23.42.24-.68.76-1.31,1-2-.24-8.61-.14-17.25,0-25.89V2.02c-.03-.72.44-2.13-.59-2.02H3.45c-.02,17,.04,34.03,0,51.02,22.06-7.77,45.17-.05,62,15Z" fill="#7d4f50"/>
  <path d="M207.99,170.06c-11.48.86-22.02-1.86-32.54-6.04-.07,2.33.05,4.68,0,7.01h-110.01c-.05.98.65.92,1.45,1.02,3.79.48,23.67-.88,24.55-.02-4.3,19.12-16.14,39.71-32.08,51.41-1.86,1.36-13.32,8.58-14.42,8.58H4.45l-1-97c.02,32.65-.02,65.35,0,98h173v51l3.49-2.01,56.51-48.99v-71c-9.43,2.8-18.45,7.28-28.46,8.03Z" fill="#4f5a8a"/>
  <path d="M44.95,232.02c1.1,0,12.56-7.22,14.42-8.58,15.93-11.7,27.78-32.3,32.08-51.41-.87-.86-20.76.5-24.55.02-.8-.1-1.5-.04-1.45-1.03.36-34.97-.48-70.03,0-105-16.83-15.05-39.94-22.77-62-15-.06,27.98-.02,56.02,0,84l1,97h40.5Z" fill="#28502e"/>
  <path d="M220.37,88.44c-13.75,11.17-29.44,8.72-44.92,2.58.06,24.22.69,48.82,0,73,10.52,4.18,21.05,6.9,32.54,6.04,10.01-.75,19.03-5.24,28.46-8.03v71s0-168,0-168c-2.39,6.85-10.44,18.84-16.08,23.42Z" fill="#b9b3bb"/>
  <path d="M237.45,2.02v35.11c.18-11.72.43-23.45,0-35.11Z" fill="#b9b3bb"/>
  <path d="M237.45,63.02v-25.89c-.14,8.64-.24,17.28,0,25.89Z" fill="#b9b3bb"/>
  <path d="M43.45,367.02l2-3.99c-6.59-1.35-9.38,1.73-13.59,6.03-4.95-3.01-21.46-3.9-20.43,4.44.27,2.2,2.75,3.16,2.81,4.01.1,1.42-3.24,3.46-2.78,5.5,5.79,3.53,21.63,5.01,21.1-4.49-.23-4.1-3.9-2.87-3.1-4.98.19-.51,2.6-2.77,2.97-2.51.09.06-.42.93.86,1.9.44.34,2.04-.33,2.24.65.73,3.59-1.47,6.98,2.41,10.46,2.25,2.02,9.01,2.94,10.38.83.37-.57.37-4.33.03-4.75-1.18-1.43-6.96,1.29-4.88-7.11l4.99,1c-.14-5.79,1.93-7.96-4.99-7.01ZM24.45,379.47h-7s0-1.45,0-1.45h7s0,1.45,0,1.45ZM19.45,374.02c1.5-3.66,5.27-1.08,7.99-.98l-7.99.98Z" fill="#4f5a8a"/>
  <path d="M183.45,367.02c-3.69.42-8.07-1.88-7.01,3-8.69-8.67-19.58,1.91-13.21,11.72,3.01,4.64,8,3.98,12.21,1.28-1.39,6.41-7.81,3.16-11.98,2-.24,3.72-2.57,4.95,1.28,7.22,6.4,3.77,17.18.9,18.71-6.72,1.02-5.09-.75-13.04,0-18.5ZM172.45,379.23c-1.77,0-3.21-1.43-3.21-3.21s1.43-3.21,3.21-3.21,3.21,1.43,3.21,3.21-1.43,3.21-3.21,3.21Z" fill="#4f5a8a"/>
  <path d="M86.44,369.02c-19.27-10.82-18.53,25.98-.48,14-.42,2.81,8.49,2.48,8.49,2v-25h-8.01s0,9,0,9ZM80.54,378.94c-2.71-3.81,3.46-8.2,5.81-4.81,2.34,3.38-4.05,7.28-5.81,4.81Z" fill="#4f5a8a"/>
  <path d="M114.19,367.27c-5.97,1.09-7.57,5.5-6.68,11.2,1.56,10.05,20.52,9.61,21.91-.01,1.4-9.75-6.88-12.71-15.22-11.19ZM121.3,378.89c-2.37,1.71-9.44-.6-6.42-4.93,2.7-3.87,10.48,1.99,6.42,4.93Z" fill="#4f5a8a"/>
  <path d="M142.62,367.69c-9.02,2.8-6.83,18,5.37,18.38,4.18.13,14.93-4.3,8.01-7.15-4.65-1.91-8.46,4.46-11.54-1.9h15c-.18-9.56-8.71-11.85-16.83-9.33ZM145.46,373.53c1.65-2.21,5.02-2.26,5.99.49l-5.99-.49Z" fill="#4f5a8a"/>
  <path d="M190.62,367.69c-9.02,2.8-6.83,18,5.37,18.38,4.18.13,14.93-4.3,8.01-7.15-4.65-1.91-8.46,4.46-11.54-1.9h15c-.18-9.56-8.71-11.85-16.83-9.33ZM193.46,373.53c1.65-2.21,5.02-2.26,5.99.49l-5.99-.49Z" fill="#4f5a8a"/>
  <path d="M70.45,367.02h-8.01s0,12,0,12h-3.49s-.5-12.01-.5-12.01h-8.01c-1.3,9.42.71,26.3,12.51,15.01,1.12.19.07,2.41.55,2.92.24.25,6.7.32,6.95.08.64-.64-.47-15.43,0-18Z" fill="#4f5a8a"/>
  <path d="M216.96,370.02c-1.73-4.38-4.41-2.9-8.5-3v18h8.01c-1.86-14.96,6.85-14.96,4.99,0h7.01v-14.5c0-3.19-10.47-5.71-11.5-.5Z" fill="#4f5a8a"/>
  <rect x="97.45" y="367.02" width="8" height="18" fill="#4f5a8a"/>
  <path d="M101.09,366.26c2.36,0,4.28-1.92,4.28-4.28s-1.92-4.28-4.28-4.28-4.28,1.92-4.28,4.28,1.92,4.28,4.28,4.28Z" fill="#4f5a8a"/>
  <path d="M241.43,322.07c-.67-1.03-19.58-3.76-22.48-4.04-45.85-4.57-95.85-3.27-141.95-1.96-21.12.6-42.94.15-63.92,3.08-2.57.36-10.33,1.54-12.03,2.79-3.78,2.78,3.77,4.33,5.35,4.64,25.46,4.99,55.55,3.78,81.6,4.4,42.11,1.01,86.97,1.91,128.95-1.96,3.16-.29,23.65-2.99,24.51-4.01.09-.11.11-2.73-.03-2.94Z" fill="#f3f3f3"/>
</svg>