<?xml version="1.0" encoding="UTF-8"?>
<svg id="Lager_1" data-name="Lager 1" xmlns="http://www.w3.org/2000/svg" viewBox="0 0 214.98 35.21">
  <path d="M80.89,26.58h-7c-.12,0,.29-2.02-.26-2-7.91,6.17-15.62-.22-13.5-9.5,1.21-5.31,6.88-8.15,11.64-5.12,1.12.71.79,1.85,2.12,1.62V2.33c0-1.13,7-1.13,7,0v24.25ZM74.17,18.08c0-1.99-1.61-3.6-3.6-3.6s-3.6,1.61-3.6,3.6,1.61,3.6,3.6,3.6,3.6-1.61,3.6-3.6Z" fill="#5a628d"/>
  <path d="M103.78,8.71c5.5-.5,11.88,2.04,12.57,8.16,1.4,12.49-20.43,14.12-21.92,2.41-.8-6.33,3.34-10.02,9.35-10.57ZM104.77,14.17c-4.08.5-4.79,6.14-1.41,7.18,7.47,2.3,8.17-8.01,1.41-7.18Z" fill="#5a628d"/>
  <g>
    <path d="M207.39,26.58v-10.25c0-.49-1.49-1.34-2.22-1.27-3.69.35-2.17,9-2.28,11.52h-8V9.08h7c.15,0-.49,2.47,1.25,2.51,2.19-4.13,9.66-3.52,11.03.96.53,1.74,1.22,12.54.5,13.56s-5.8.22-7.28.47Z" fill="#5a628d"/>
    <path d="M193.39,18.58h-13.75c-1.37,0-.41,2.45,1.1,2.9,3.72,1.1,5.19-1.32,6.88-1.35.85-.02,5.49,1.67,5.26,2.69-.21.91-3.52,3.08-4.55,3.45-7.58,2.73-17.22,0-16.47-9.47.94-11.84,22.5-10.4,21.53,1.78ZM186.39,16.08c-.3-3.49-7.21-3.56-7,0h7Z" fill="#5a628d"/>
  </g>
  <g>
    <path d="M162.88,11.58c-.83-3.32,6.45-3.13,6.94-1.68l-.43,16.43c-.58,8.57-12.35,11.05-18.45,6.95-2.74-1.84-1-3.62-.53-6.19,5.22,1.65,11.89,3.67,12.47-4.01-6.93,7.22-16.03,2.11-14.38-7.63.9-5.31,6.32-8.37,11.24-5.97,1.24.61,1.72,2.08,3.14,2.11ZM161.76,20.45c2.18-2.01.71-6.4-2.62-6.4-6.58,0-2.34,10.99,2.62,6.4Z" fill="#5a628d"/>
    <path d="M145.89,18.58h-14.5c-.07,3.09,3.18,3.49,5.65,2.9,1.14-.27,1.67-1.44,3.04-1.39.28,0,4.62,1.33,4.78,1.52,1.47,1.74-3.12,4.28-4.48,4.72-8.05,2.59-16.96-.35-16.02-10.02,1.08-11.12,22.36-9.82,21.52,2.28ZM138.39,16.08c.31-3.76-6.68-3.42-7,0h7Z" fill="#5a628d"/>
  </g>
  <path d="M38.39,9.08c1.42.24,6.08-.54,6.78.47,1.21,1.73-1.52,11.71,2.55,11.94,4.5.25,1.69-10.22,2.89-11.94.58-.84,7.28-.76,7.28.28v16.75c-1.31-.28-5.67.42-6.43-.07s0-3.35-1.31-2.94c-1.52,3.89-7.27,4.69-10.09,1.84-.34-.35-1.67-2.81-1.67-3.08v-13.25Z" fill="#5a628d"/>
  <g>
    <path d="M15.64,16.08c1.82.3,3.94,1.85,4.23,3.79C21.26,29.29,2.12,27.29.1,24.09c-.62-.98,1.78-3.72,2.64-3.94,1.42-.36,8.18,3.7,10.14.18.46-2.2-5.82-.9-7.02-.97-4.55-.29-6.76-2.16-5.38-6.92.97-3.35,9.72-3.61,12.52-3.22.78.11,5.68,1.63,5.86,1.9.58.85-1.79,3.45-2.49,3.74-1.3.55-7.58-3.48-9.48-.01-.19.42.59,1.24.75,1.24,2.31,0,5.93-.34,8,0Z" fill="#5a628d"/>
    <path d="M27.14,26.58c-.11-.02-1.57-1.15-1.76-1.38-2.68-3.22-.66-8.67-1.71-10.15-.65-.92-3.07-.26-3.29-.47-.15-.14-.07-3.6.1-4.16.37-1.21,1.99-1.28,2.94-2.06.7-.57.98-1.92,1.79-2.21,1.8-.62,4.92.55,6.91-.59,1.29.96-1.91,2.92-1.24,3.5,2.93.38,5.27-1.45,5.51,2.26.33,5.01-1.45,3.66-5.52,3.74.11,1.42-.44,5.28.83,6.04,2.75,1.65,3.78-.45,3.17,5.46-2.24-.34-5.71.46-7.75,0Z" fill="#5a628d"/>
  </g>
  <g>
    <path d="M91.89,26.58c-1.5-.25-6.57.55-7.28-.47-.5-.72-.38-15.88.23-16.74.41-.57,7.06-.59,7.06.46v16.75Z" fill="#5a628d"/>
    <path d="M86.74.19c7.1-1.62,7.44,7.82.95,7.37-4.61-.32-4.76-6.5-.95-7.37Z" fill="#5a628d"/>
  </g>
</svg>